<svg t="1716541098194" class="icon" viewBox="0 0 1024 1024" version="1.1" xmlns="http://www.w3.org/2000/svg" p-id="45293" width="60" height="60"><path d="M0 0m204.8 0l614.4 0q204.8 0 204.8 204.8l0 614.4q0 204.8-204.8 204.8l-614.4 0q-204.8 0-204.8-204.8l0-614.4q0-204.8 204.8-204.8Z" fill="currentColor" p-id="45294"></path><path d="M524.67712 858.68544c-124.37504 0-278.528-187.65824-278.528-247.98208V323.584c0-21.62688 25.27232-37.71392 46.42816-52.224S448.02048 194.56 531.49696 194.56c80.896 0 197.632 66.7648 225.34144 76.8s46.42816 30.58688 46.42816 52.224v287.1296c-0.03072 27.83232-154.22464 247.97184-278.58944 247.97184z m135.02464-452.74112a31.98976 31.98976 0 0 0-30.1568 21.2992 128.96256 128.96256 0 0 0-65.86368-41.75872 39.34208 39.34208 0 0 0 11.93984-28.22144 40.18176 40.18176 0 0 0-80.35328 0 39.13728 39.13728 0 0 0 10.35264 26.37824 128.72704 128.72704 0 0 0-71.82336 41.1136 32.34816 32.34816 0 1 0-21.6576 34.00704 125.70624 125.70624 0 0 0-0.59392 97.20832c-0.49152 0-0.95232-0.14336-1.44384-0.14336a39.72096 39.72096 0 1 0 38.56384 50.24768 128.68608 128.68608 0 0 0 56.97536 26.624 39.168 39.168 0 0 0-10.37312 26.40896 40.18176 40.18176 0 0 0 80.35328 0 39.33184 39.33184 0 0 0-11.9808-28.2624 128.90112 128.90112 0 0 0 60.74368-35.84 31.06816 31.06816 0 0 0-0.54272 5.376 32.41984 32.41984 0 1 0 17.83808-28.3136 124.79488 124.79488 0 0 0 11.17184-103.0144 32.768 32.768 0 0 0 6.85056 0.75776 31.93856 31.93856 0 1 0 0-63.86688z" fill="#FFFFFF" p-id="45295"></path></svg>
