<svg t="1716540963577" class="icon" viewBox="0 0 1024 1024" version="1.1" xmlns="http://www.w3.org/2000/svg" p-id="39186" width="60" height="60"><path d="M131.2768 0h761.4464c45.6448 0 62.208 4.7616 78.8992 13.6704 16.6912 8.9344 29.7728 22.016 38.7072 38.7072 8.9088 16.6912 13.6704 33.2544 13.6704 78.8992v761.4464c0 45.6448-4.7616 62.208-13.6704 78.8992a93.056 93.056 0 0 1-38.7072 38.7072c-16.6912 8.9088-33.2544 13.6704-78.8992 13.6704H131.2768c-45.6448 0-62.208-4.7616-78.8992-13.6704a93.056 93.056 0 0 1-38.7072-38.7072C4.7616 954.9312 0 938.368 0 892.7232V131.2768c0-45.6448 4.7616-62.208 13.6704-78.8992A93.056 93.056 0 0 1 52.3776 13.6704C69.0688 4.7616 85.632 0 131.2768 0z" fill="currentColor" p-id="39187"></path><path d="M126.7456 665.6l-0.9472-0.0256c-13.44-0.5632-23.9104-13.0048-23.3728-27.8016C105.8304 541.184 162.2016 358.4 351.2064 358.4c156.5952 0 211.6352 112.2048 224.768 146.5856 1.408 3.6352 2.688 7.3216 3.8656 11.0592 25.9584-16.256 64.8192-27.5712 118.7072-11.4688 5.632 2.1248 95.0528 38.4512 95.0528 134.2464 0 14.7968-10.9056 26.7776-24.32 26.7776-13.4656 0-24.3712-11.9808-24.3712-26.7776 0-57.856-58.5472-82.2272-61.0304-83.2512-64.1024-19.0976-95.2832 17.6384-102.4 27.8272-1.3824 2.5344-2.9952 4.864-4.864 6.9632a22.7072 22.7072 0 0 1-32.3584 2.3808c-9.728-8.3456-12.2368-23.3984-5.8368-35.0208 0.512-10.3424-6.656-41.8048-30.2848-73.3696-24.7552-33.024-72.064-72.4224-156.928-72.4224-189.9008 0-199.8336 218.624-200.1408 227.9424C150.528 654.2848 139.776 665.6 126.72 665.6z m600.8832-128a24.2688 24.2688 0 0 1-11.0848-2.7136c-12.8-6.5536-18.176-22.9632-12.032-36.608a138.1632 138.1632 0 0 0 5.1968-99.968c-10.8288-32.9728-33.024-59.4432-62.464-74.5728-60.8256-31.1808-134.0928-3.7632-163.2768 61.2864-6.144 13.6704-21.504 19.3792-34.2272 12.8512-12.7488-6.5536-18.1504-22.9376-12.0064-36.608 41.4464-92.288 145.408-131.3024 231.7056-86.9632 41.8304 21.4528 73.3184 59.0592 88.6784 105.856a196.096 196.096 0 0 1-7.3472 141.9008 25.5488 25.5488 0 0 1-23.1424 15.5392z m-316.3136-230.4a19.6608 19.6608 0 0 1-11.6736-4.0192l-54.7072-40.192c-11.4688-8.448-15.5136-27.4176-9.0624-42.3936 6.4768-14.9504 21.0432-20.1984 32.512-11.8016l54.6816 40.192c11.4688 8.448 15.5136 27.4432 9.0624 42.3936-4.3776 10.112-12.4672 15.8208-20.8128 15.8208zM588.8 204.8c-14.1312 0-25.6-11.2128-25.6-25.0112V101.8112c0-13.824 11.4688-25.0112 25.6-25.0112s25.6 11.2128 25.6 25.0112v77.9776c0 13.824-11.4688 25.0112-25.6 25.0112z m177.4592 76.8a21.6832 21.6832 0 0 1-16.8704-8.7296c-9.3184-11.6736-9.3184-30.5408 0-42.1888l54.6816-68.352c9.3184-11.648 24.4224-11.648 33.7408 0 9.3184 11.648 9.3184 30.5408 0 42.1888l-54.6816 68.352a21.6832 21.6832 0 0 1-16.896 8.7296h0.0256z m130.4576 153.6h-52.6592A25.2416 25.2416 0 0 1 819.2 409.5488c0-14.1312 11.136-25.5744 24.8832-25.5744h52.6592c13.7216 0.0256 24.8576 11.4944 24.8576 25.6256 0 14.1312-11.136 25.5744-24.8832 25.5744z m-25.728 332.8H127.4112A25.3184 25.3184 0 0 1 102.4 742.4c0-14.1312 11.1872-25.6 25.0112-25.6h743.5776c13.824 0 25.0112 11.4688 25.0112 25.6s-11.1872 25.6-25.0112 25.6z m-127.5136 128H229.3248C215.808 896 204.8 884.5312 204.8 870.4s11.008-25.6 24.5248-25.6h514.1504c13.5424 0 24.5248 11.4688 24.5248 25.6s-11.008 25.6-24.5248 25.6z" fill="#FFFFFF" p-id="39188"></path></svg>
