<svg t="1716538613262" class="icon" viewBox="0 0 1024 1024" version="1.1" xmlns="http://www.w3.org/2000/svg" p-id="5833" xmlns:xlink="http://www.w3.org/1999/xlink" width="60" height="60"><path d="M760.2 960.2h-496c-110.5 0-200-89.5-200-200v-496c0-110.5 89.5-200 200-200h496c110.5 0 200 89.5 200 200v496c0 110.5-89.5 200-200 200z" fill="currentColor" p-id="5834"></path><path d="M680.1 484.5c13.1 0.1 25.9 1.8 38.1 4.7l1-145c0.1-16.1-12.8-29.2-28.9-29.3l-75.4-0.5c0.1-11.6-9.2-21-20.8-21.1-11.6-0.1-21 9.2-21.1 20.8l-125.5-0.9c0.1-11.6-9.2-21-20.8-21.1-11.6-0.1-21 9.2-21.1 20.8l-75.4-0.5c-16.1-0.1-29.2 12.8-29.3 28.9L298.5 677c-0.1 18 14.4 32.7 32.4 32.8l194.1 1.3c-7.6-19.2-11.8-40.2-11.7-62.2v-0.6l-10.7-0.1 0.9-125.5-31.4-0.2 0.3-41.8 73.2 0.5-0.5 71.3c30.4-41.5 79.6-68.4 135-68z m-338-67.5l0.4-62.8 62.8 0.4c-0.1 11.6 9.2 21 20.8 21.1s21-9.2 21.1-20.8l125.5 0.9c-0.1 11.6 9.2 21 20.8 21.1s21-9.2 21.1-20.8l62.8 0.4-0.4 62.8-334.9-2.3zM725.9 604.6h-4.6v2.3c0 5.3-4.3 9.5-9.5 9.5H648c-5.3 0-9.5-4.3-9.5-9.5v-2.3h-4.6c-0.7 0-1.2 0.5-1.2 1.2v105.3c0 0.7 0.5 1.2 1.2 1.2h92c0.7 0 1.2-0.5 1.2-1.2V605.8c0-0.6-0.5-1.2-1.2-1.2z m-44.6 83.9h-25.9c-2.5 0-4.5-2-4.5-4.5s2-4.5 4.5-4.5h25.9c2.5 0 4.5 2 4.5 4.5s-2 4.5-4.5 4.5z m23.7-24.6h-49.6c-2.5 0-4.5-2-4.5-4.5s2-4.5 4.5-4.5H705c2.5 0 4.5 2 4.5 4.5s-2 4.5-4.5 4.5z m0-23.7h-49.6c-2.5 0-4.5-2-4.5-4.5s2-4.5 4.5-4.5H705c2.5 0 4.5 2 4.5 4.5s-2 4.5-4.5 4.5z" fill="#FFFFFF" p-id="5835"></path><path d="M648.1 607.4h63.8c0.2 0 0.4-0.2 0.4-0.4v-11.2c0-0.2-0.2-0.4-0.4-0.4h-12.7c-2.5 0-4.5-2-4.5-4.5V586c0-0.2-0.2-0.4-0.4-0.4h-27.8c-0.2 0-0.4 0.2-0.4 0.4v4.8c0 2.5-2 4.5-4.5 4.5h-13.2c-0.2 0-0.4 0.2-0.4 0.4v11.2c-0.4 0.3-0.2 0.5 0.1 0.5z" fill="#FFFFFF" p-id="5836"></path><path d="M679.9 524.7c-68.6 0-124.2 55.6-124.2 124.2s55.6 124.2 124.2 124.2 124.2-55.6 124.2-124.2-55.6-124.2-124.2-124.2z m56.3 186.4c0 5.7-4.6 10.3-10.3 10.3h-92c-5.7 0-10.3-4.6-10.3-10.3V605.8c0-5.7 4.6-10.3 10.3-10.3h4.6c0.1-5.2 4.3-9.4 9.5-9.4l8.7-0.2c0-5.3 4.3-9.5 9.5-9.5H694c5.3 0 9.5 4.3 9.5 9.5v0.2h8.2c5.2 0 9.4 4.2 9.5 9.4h4.6c5.7 0 10.3 4.6 10.3 10.3v105.3z" fill="#FFFFFF" p-id="5837"></path></svg>
